<?xml version="1.0" encoding="iso-8859-1"?>
<!-- Generator: Adobe Illustrator 21.0.0, SVG Export Plug-In . SVG Version: 6.00 Build 0)  -->
<svg version="1.1" id="Capa_1" xmlns="http://www.w3.org/2000/svg" xmlns:xlink="http://www.w3.org/1999/xlink" x="0px" y="0px"
	 viewBox="0 0 512 512" style="enable-background:new 0 0 512 512;" xml:space="preserve">
<g>
	<g>
		<g>
			<path d="M8.533,341.317c4.56-0.005,9.117,0.223,13.653,0.683c15.678,1.717,30.763,6.969,44.117,15.36
				c19.749,12.343,42.68,18.632,65.963,18.091c18.282,0.548,36.428-3.31,52.907-11.247c4.523-2.133,8.781-4.523,13.047-6.827
				c17.212-10.958,37.295-16.549,57.694-16.06c20.422-0.503,40.532,5.081,57.771,16.043c19.776,12.354,42.737,18.643,66.048,18.091
				c7.685,0.059,15.362-0.512,22.955-1.707c15.241-2.701,29.833-8.26,43.008-16.384c17.238-10.961,37.349-16.546,57.771-16.043
				c4.713,0,8.533-3.82,8.533-8.533s-3.82-8.533-8.533-8.533c-23.282-0.541-46.214,5.748-65.963,18.091
				c-3.755,2.048-7.424,4.096-11.264,5.973l81.664-98.304c4.323-5.08,5.289-12.214,2.475-18.261
				c-2.724-6.076-8.787-9.962-15.445-9.899h-73.984l-44.971-32.683l-45.056-32.768l-4.267-8.619
				c-8.628-17.404-26.399-28.391-45.824-28.331h-87.825l-8.533-17.067H230.4c4.713,0,8.533-3.821,8.533-8.533
				s-3.82-8.533-8.533-8.533h-93.867c-4.713,0-8.533,3.82-8.533,8.533s3.82,8.533,8.533,8.533h28.86l8.533,17.067h-37.393
				c-14.138,0-25.6,11.461-25.6,25.6s11.461,25.6,25.6,25.6h11.861l-25.6,51.2H115.2c-5.372,0-10.43,2.529-13.653,6.827
				l-20.48,27.307H66.389c-2.907-0.019-5.618,1.465-7.168,3.925l-41.472,64.597c-2.901-0.171-5.973-0.256-9.216-0.256
				C3.82,324.25,0,328.07,0,332.783S3.82,341.317,8.533,341.317z M349.867,264.517c0,4.713-3.82,8.533-8.533,8.533
				s-8.533-3.82-8.533-8.533v-25.6h17.067V264.517z M401.067,239.002h17.067v25.515c0,4.713-3.82,8.533-8.533,8.533
				s-8.533-3.82-8.533-8.533V239.002z M384,238.917v25.6c0,4.713-3.82,8.533-8.533,8.533s-8.533-3.82-8.533-8.533v-25.6H384z
				 M221.867,170.65h17.067v8.533c0,4.713,3.82,8.533,8.533,8.533h97.451l23.467,17.067H247.467
				c-14.121-0.042-25.558-11.479-25.6-25.6V170.65z M115.2,238.917h174.933v8.533c0,4.713-3.82,8.533-8.533,8.533H102.4
				L115.2,238.917z"/>
			<path d="M503.467,375.45c-23.301-0.547-46.251,5.755-66.005,18.125c-17.238,10.924-37.326,16.494-57.728,16.009
				c-20.413,0.493-40.515-5.078-57.762-16.009c-19.764-12.376-42.727-18.678-66.039-18.125
				c-23.288-0.546-46.224,5.756-65.963,18.125c-17.227,10.926-37.308,16.498-57.702,16.009
				c-20.408,0.492-40.504-5.079-57.745-16.009c-19.747-12.371-42.692-18.674-65.988-18.125C3.82,375.45,0,379.27,0,383.983
				s3.82,8.533,8.533,8.533c20.405-0.491,40.498,5.08,57.737,16.009c19.75,12.373,42.698,18.675,65.997,18.125
				c23.289,0.548,46.226-5.757,65.963-18.133c17.229-10.921,37.309-16.489,57.702-16c20.413-0.493,40.515,5.078,57.762,16.009
				c19.764,12.376,42.727,18.678,66.039,18.125c23.301,0.547,46.251-5.755,66.005-18.125c17.238-10.924,37.326-16.494,57.728-16.009
				c4.713,0,8.533-3.82,8.533-8.533S508.18,375.45,503.467,375.45z"/>
		</g>
	</g>
</g>
<g>
</g>
<g>
</g>
<g>
</g>
<g>
</g>
<g>
</g>
<g>
</g>
<g>
</g>
<g>
</g>
<g>
</g>
<g>
</g>
<g>
</g>
<g>
</g>
<g>
</g>
<g>
</g>
<g>
</g>
</svg>
